<svg xmlns="http://www.w3.org/2000/svg" width="22.66" height="14.38"><path data-name="Union 6" d="M6.72 14.35A7.121 7.121 0 01.13 8.7a6.6 6.6 0 01-.14-1.93A7.277 7.277 0 015.48.21 5.282 5.282 0 016.66.02c.23-.01.46-.02.69-.02a6.786 6.786 0 013.4.93 9.386 9.386 0 011.27.93c-.72.71-1.41 1.4-2.11 2.09a3.914 3.914 0 00-2.1-1.02 4.259 4.259 0 00-.61-.04 4.307 4.307 0 00-4.14 3.35 3.817 3.817 0 00-.1 1.3 4.3 4.3 0 002.94 3.74 4.35 4.35 0 001.25.19c.1 0 .2-.01.3-.01a4.2 4.2 0 002.09-.67 3.314 3.314 0 001.43-2.17H7.12c0-.09.02-1.89.02-2.76l.01-.12h6.76a7.773 7.773 0 01-1.28 6.05 6.273 6.273 0 01-3.55 2.32 7.539 7.539 0 01-1.94.25c-.14 0-.28 0-.42-.01zm13.33-4.05h-1.89v-.07l.02-2.43h-2.51v-.08l.02-1.82v-.07h2.5l.02-2.43v-.07h1.96v.07l-.02 2.43h2.51v.07l-.01 1.82v.08h-2.51l-.02 2.43v.07h-.07z" fill="#888" fill-rule="evenodd"/></svg>