<svg xmlns="http://www.w3.org/2000/svg" width="146" height="39"><g data-name="Монтажная область 1"><path data-name="Path 324" d="M.16 28.674a1.107 1.107 0 00.62.387l48.04 9.8a1.144 1.144 0 00.91-.212.886.886 0 00.31-.8L43.79.77a.991.991 0 00-.45-.645 1.35 1.35 0 00-.97-.051L7.18 14.124a.909.909 0 00-.51.452C6.5 14.901.18 27.652.09 27.833a.805.805 0 00.07.841zm45.58 6.436L25.69 23.965l10.34-2.159zM8.05 16.227l12.52 6.983-17.83 3.715zm1.66-1.172L41.24 2.468l-5.56 17.587-12.37 2.584zM47.36 34.05l-9.78-13.4 4.91-15.52zm-3.88 1.9L5.43 28.189l17.52-3.65z" fill="#a3bbc8" fill-rule="evenodd"/><text x="62.001" y="32" font-size="36" fill="#436372" font-family="Rubik" font-weight="500">Glee.</text></g></svg>