<svg display="none" xmlns="http://www.w3.org/2000/svg">
  <symbol id="logo" viewBox="0 0 146 39">
    <path d="M1100.16,79.674a1.107,1.107,0,0,0,.62.387l48.04,9.8a1.144,1.144,0,0,0,.91-0.212,0.886,0.886,0,0,0,.31-0.8h0l-6.25-37.079a0.991,0.991,0,0,0-.45-0.645,1.35,1.35,0,0,0-.97-0.051l-35.19,14.05a0.909,0.909,0,0,0-.51.452c-0.17.325-6.49,13.076-6.58,13.257A0.805,0.805,0,0,0,1100.16,79.674Zm45.58,6.436-20.05-11.145,10.34-2.159Zm-37.69-18.883,12.52,6.983-17.83,3.715Zm1.66-1.172,31.53-12.587-5.56,17.587-12.37,2.584Zm37.65,18.995-9.78-13.4,4.91-15.52Zm-3.88,1.9-38.05-7.761,17.52-3.65Z" transform="translate(-1100 -51)"/>
    <text kerning="auto" font-family="Myriad Pro" fill="rgb(0, 0, 0)" font-size="36px" x="63px" y="31.641px"><tspan font-size="36px" font-family="Rubik" fill="#436372">Glee&#46;</tspan></text>
  </symbol>

  <symbol id="cart" viewBox="0 0 18.94 16.969">
    <path d="M1721.53,85.978a2.073,2.073,0,1,1,0-4.147h0a2.056,2.056,0,0,1,1.46.6,2.03,2.03,0,0,1,.61,1.466A2.071,2.071,0,0,1,1721.53,85.978Zm0-2.963h0a0.889,0.889,0,1,0,.34,1.71,0.9,0.9,0,0,0,.55-0.824,0.92,0.92,0,0,0-.26-0.629A0.9,0.9,0,0,0,1721.53,83.015Zm8.39,2.963a2.045,2.045,0,0,1-1.46-.607,2.068,2.068,0,0,1,1.46-3.54h0a1.953,1.953,0,0,1,1.47.6,2.085,2.085,0,0,1-.67,3.383A2.093,2.093,0,0,1,1729.92,85.978Zm0-2.963h0a0.978,0.978,0,0,0-.82.548,0.887,0.887,0,0,0,1.16,1.161,0.891,0.891,0,0,0,.29-1.452A0.9,0.9,0,0,0,1729.92,83.015Zm-11.27.164a0.562,0.562,0,0,1-.25-0.056,0.59,0.59,0,0,1-.29-0.787,3.686,3.686,0,0,1,3.05-2.151l-1.05-5.391a0.591,0.591,0,1,1,1.16-.228l1.09,5.578h9.43l1.8-6.771h-13.3a4.346,4.346,0,0,1-4.28-3.693,0.587,0.587,0,0,1,.49-0.673,0.6,0.6,0,0,1,.68.5,3.159,3.159,0,0,0,3.11,2.682h14.07a0.582,0.582,0,0,1,.47.232,0.594,0.594,0,0,1,.11.513l-2.13,7.956a0.59,0.59,0,0,1-.57.44h-10.36a0.03,0.03,0,0,0-.02,0,2.66,2.66,0,0,0-2.68,1.51A0.586,0.586,0,0,1,1718.65,83.178Z" transform="translate(-1716 -69)"/>
  </symbol>

  <symbol id="heart" viewBox="0 -28 512.001 512">
    <path d="m256 455.515625c-7.289062 0-14.316406-2.640625-19.792969-7.4375-20.683593-18.085937-40.625-35.082031-58.21875-50.074219l-.089843-.078125c-51.582032-43.957031-96.125-81.917969-127.117188-119.3125-34.644531-41.804687-50.78125-81.441406-50.78125-124.742187 0-42.070313 14.425781-80.882813 40.617188-109.292969 26.503906-28.746094 62.871093-44.578125 102.414062-44.578125 29.554688 0 56.621094 9.34375 80.445312 27.769531 12.023438 9.300781 22.921876 20.683594 32.523438 33.960938 9.605469-13.277344 20.5-24.660157 32.527344-33.960938 23.824218-18.425781 50.890625-27.769531 80.445312-27.769531 39.539063 0 75.910156 15.832031 102.414063 44.578125 26.191406 28.410156 40.613281 67.222656 40.613281 109.292969 0 43.300781-16.132812 82.9375-50.777344 124.738281-30.992187 37.398437-75.53125 75.355469-127.105468 119.308594-17.625 15.015625-37.597657 32.039062-58.328126 50.167969-5.472656 4.789062-12.503906 7.429687-19.789062 7.429687zm-112.96875-425.523437c-31.066406 0-59.605469 12.398437-80.367188 34.914062-21.070312 22.855469-32.675781 54.449219-32.675781 88.964844 0 36.417968 13.535157 68.988281 43.882813 105.605468 29.332031 35.394532 72.960937 72.574219 123.476562 115.625l.09375.078126c17.660156 15.050781 37.679688 32.113281 58.515625 50.332031 20.960938-18.253907 41.011719-35.34375 58.707031-50.417969 50.511719-43.050781 94.136719-80.222656 123.46875-115.617188 30.34375-36.617187 43.878907-69.1875 43.878907-105.605468 0-34.515625-11.605469-66.109375-32.675781-88.964844-20.757813-22.515625-49.300782-34.914062-80.363282-34.914062-22.757812 0-43.652344 7.234374-62.101562 21.5-16.441406 12.71875-27.894532 28.796874-34.609375 40.046874-3.453125 5.785157-9.53125 9.238282-16.261719 9.238282s-12.808594-3.453125-16.261719-9.238282c-6.710937-11.25-18.164062-27.328124-34.609375-40.046874-18.449218-14.265626-39.34375-21.5-62.097656-21.5zm0 0"/>
  </symbol>

  <symbol id="search" viewBox="0 0 15.28 15.281">
    <path d="M1547.7,72.076a0.617,0.617,0,0,1,.75.485,2.583,2.583,0,0,0,.78,1.489,3.036,3.036,0,0,0,1.49.777,0.636,0.636,0,0,1,.49.743,0.649,0.649,0,0,1-.72.515,4.21,4.21,0,0,1-2.14-1.13,4.164,4.164,0,0,1-1.13-2.136A0.6,0.6,0,0,1,1547.7,72.076ZM1550.98,66a6.267,6.267,0,0,1,6.28,6.257,6.136,6.136,0,0,1-.57,2.6l2.34,2.036c1.7,1.746.74,3.266,0.29,3.717-0.42.454-1.99,1.414-3.73-.292l-2.06-2.35A6.261,6.261,0,1,1,1550.98,66Zm5.55,13.517a1.352,1.352,0,0,0,1.88.226,1.313,1.313,0,0,0-.23-1.874l-2.16-1.88a6.236,6.236,0,0,1-1.37,1.34Zm-5.55-2.312a4.948,4.948,0,1,0-4.97-4.948A4.963,4.963,0,0,0,1550.98,77.2Z" transform="translate(-1544.72 -66)"/>
  </symbol>

  <symbol id="menu" viewBox="0 0 20.03 20.031">
    <path d="M1813.15,67.881a2.146,2.146,0,1,1,2.14-2.145A2.145,2.145,0,0,1,1813.15,67.881Zm0,7.869a2.146,2.146,0,1,1,2.14-2.147A2.146,2.146,0,0,1,1813.15,75.75Zm0,7.868a2.146,2.146,0,1,1,2.14-2.146A2.145,2.145,0,0,1,1813.15,83.618Zm7.86-15.737a2.146,2.146,0,1,1,2.15-2.145A2.143,2.143,0,0,1,1821.01,67.881Zm0,7.869a2.146,2.146,0,1,1,2.15-2.147A2.144,2.144,0,0,1,1821.01,75.75Zm0,7.868a2.146,2.146,0,1,1,2.15-2.146A2.143,2.143,0,0,1,1821.01,83.618Zm7.87-15.737a2.146,2.146,0,1,1,2.15-2.145A2.143,2.143,0,0,1,1828.88,67.881Zm0,7.869a2.146,2.146,0,1,1,2.15-2.147A2.144,2.144,0,0,1,1828.88,75.75Zm0,7.868a2.146,2.146,0,1,1,2.15-2.146A2.143,2.143,0,0,1,1828.88,83.618Z" transform="translate(-1811 -63.594)"/>
  </symbol>

  <symbol id="twfo" viewBox="0 0 49.125 49.13">
    <path d="M268.312,1022.67a0.937,0.937,0,0,0-1.592.99,22.684,22.684,0,0,1-32.86,30.14,0.938,0.938,0,0,0-1.125,1.5A24.559,24.559,0,0,0,268.312,1022.67Zm-23.03,21.94h-7.55l4.743-4.75a12.68,12.68,0,0,0,3.744-9.03,5.844,5.844,0,1,0-11.688,0,0.938,0.938,0,0,0,1.875,0,3.969,3.969,0,1,1,7.938,0,10.836,10.836,0,0,1-3.195,7.71l-6.344,6.34a0.949,0.949,0,0,0-.2,1.03,0.93,0.93,0,0,0,.866.57h9.813A0.935,0.935,0,1,0,245.282,1044.61Zm15.039-6.44h-2.6v-1.52a0.938,0.938,0,0,0-1.875,0v1.52h-5.286l5.286-8.85v4.21a0.938,0.938,0,1,0,1.875,0v-7.62a0.957,0.957,0,0,0-.456-0.8,0.94,0.94,0,0,0-1.286.33l-7.875,13.19a0.933,0.933,0,0,0-.011.94,0.951,0.951,0,0,0,.816.48h6.938v5.5a0.938,0.938,0,0,0,1.875,0v-5.5h2.6A0.94,0.94,0,0,0,260.321,1038.17Zm5.33-22.63a0.938,0.938,0,1,0-1.875.04l0.042,1.75a24.556,24.556,0,0,0-33.549,35.85,0.93,0.93,0,0,0,.656.27,0.92,0.92,0,0,0,.669-0.28,0.942,0.942,0,0,0-.013-1.33,22.679,22.679,0,0,1,15.882-38.87,22.745,22.745,0,0,1,15.107,5.77l-1.843.04a0.935,0.935,0,0,0,.022,1.87h0.023l4.06-.09a0.934,0.934,0,0,0,.915-0.96Z" transform="translate(-222.906 -1011.09)"/>
  </symbol>

  <symbol id="track" viewBox="0 0 49.126 29.35">
    <path d="M812.816,1025.33H806.69a0.79,0.79,0,0,0,0,1.58h6.126A0.79,0.79,0,0,0,812.816,1025.33Zm0.524,11.01h-5.6a0.785,0.785,0,1,0,0,1.57h5.6A0.785,0.785,0,1,0,813.34,1036.34Zm-2.094-4.72H804.6a0.79,0.79,0,0,0,0,1.58h6.65A0.79,0.79,0,0,0,811.246,1031.62Zm0,11.01H810.6a0.785,0.785,0,1,0,0,1.57h0.644A0.785,0.785,0,1,0,811.246,1042.63Zm-3.263,0H804.6a0.785,0.785,0,1,0,0,1.57h3.387A0.785,0.785,0,1,0,807.983,1042.63Zm36.86-19.86h-6.657v-1.42a0.784,0.784,0,0,0-.786-0.78H825.225a0.785,0.785,0,1,0,0,1.57h11.39v17.22a0.786,0.786,0,1,0,1.571,0v-15.02h6.657a6.519,6.519,0,0,1,6.509,6.52v13.29h-2a4.974,4.974,0,0,0-9.824,0h-1.345v-1.12a0.786,0.786,0,1,0-1.571,0v1.12h-8.336a4.974,4.974,0,0,0-9.823,0h-1.634v-22.01h5.261a0.785,0.785,0,1,0,0-1.57h-6.046a0.783,0.783,0,0,0-.785.78v23.59a0.791,0.791,0,0,0,.785.79h2.419a4.974,4.974,0,0,0,9.823,0h11.252a4.974,4.974,0,0,0,9.824,0h2.782a0.791,0.791,0,0,0,.785-0.79v-14.08A8.094,8.094,0,0,0,844.843,1022.77Zm-21.475,25.58a3.41,3.41,0,1,1,3.4-3.41A3.411,3.411,0,0,1,823.368,1048.35Zm21.075,0a3.411,3.411,0,0,1-3.4-3.41h0A3.4,3.4,0,1,1,844.443,1048.35Zm0.4-22.44h-4.3a0.791,0.791,0,0,0-.785.79v7.39a0.791,0.791,0,0,0,.785.79H849a0.792,0.792,0,0,0,.786-0.79v-3.23A4.949,4.949,0,0,0,844.843,1025.91Zm3.367,7.39h-6.882v-5.81h3.515a3.371,3.371,0,0,1,3.367,3.37v2.44Zm-24.842,9.61a2.03,2.03,0,1,0,2.024,2.03A2.029,2.029,0,0,0,823.368,1042.91Zm0,2.49a0.46,0.46,0,0,1-.455-0.46,0.455,0.455,0,0,1,.909,0A0.46,0.46,0,0,1,823.368,1045.4Zm21.075-2.49a2.03,2.03,0,1,0,2.025,2.03A2.03,2.03,0,0,0,844.443,1042.91Zm0,2.49a0.46,0.46,0,0,1-.454-0.46,0.454,0.454,0,0,1,.908,0A0.46,0.46,0,0,1,844.443,1045.4Zm4.552-8.37a0.783,0.783,0,0,0-.785.78v1.99a0.786,0.786,0,1,0,1.571,0v-1.99A0.784,0.784,0,0,0,849,1037.03Z" transform="translate(-803.812 -1020.56)"/>
  </symbol>

  <symbol id="card" viewBox="0 0 49.13 43.84">
   <path d="M1444.43,1042.32a0.83,0.83,0,0,0-.84.83v8.27a2.164,2.164,0,0,1-2.16,2.16h-39.34a2.164,2.164,0,0,1-2.16-2.16V1039.5h27.29a0.84,0.84,0,1,0,0-1.68h-27.29v-5.47h9.87a0.828,0.828,0,0,0,.83-0.83,0.837,0.837,0,0,0-.83-0.84h-9.87v-2.88a2.166,2.166,0,0,1,2.16-2.17h25.13a0.835,0.835,0,1,0,0-1.67h-25.13a3.839,3.839,0,0,0-3.83,3.84v23.62a3.837,3.837,0,0,0,3.83,3.83h39.34a3.837,3.837,0,0,0,3.83-3.83v-8.27A0.828,0.828,0,0,0,1444.43,1042.32Zm-17.21-11.64H1413a0.837,0.837,0,0,0-.83.84,0.828,0.828,0,0,0,.83.83h14.22a0.837,0.837,0,0,0,.84-0.83A0.845,0.845,0,0,0,1427.22,1030.68Zm-9.24,11.56h-14.27a0.835,0.835,0,0,0,0,1.67h14.27A0.835,0.835,0,1,0,1417.98,1042.24Zm-6.08,3.99h-8.19a0.835,0.835,0,0,0,0,1.67h8.19A0.835,0.835,0,0,0,1411.9,1046.23Zm34.63-13.61a0.832,0.832,0,0,0,.84-0.84v-4.77a3.038,3.038,0,0,0-2.39-2.97v-6.02a6.6,6.6,0,1,0-13.19,0v6.02a3.053,3.053,0,0,0-2.4,2.97v10.75a3.045,3.045,0,0,0,3.04,3.04h11.9a3.039,3.039,0,0,0,3.04-3.04v-3.19a0.835,0.835,0,0,0-1.67,0v3.19a1.379,1.379,0,0,1-1.37,1.37h-11.9a1.379,1.379,0,0,1-1.37-1.37v-10.75a1.379,1.379,0,0,1,1.37-1.37h11.9a1.379,1.379,0,0,1,1.37,1.37v4.77A0.83,0.83,0,0,0,1446.53,1032.62Zm-3.23-8.65h-9.84v-5.95a4.92,4.92,0,1,1,9.84,0v5.95h0Zm-4.92,4.32a3.092,3.092,0,0,0-.83,6.07v2.04a0.83,0.83,0,0,0,.83.84,0.839,0.839,0,0,0,.84-0.84v-2.04A3.094,3.094,0,0,0,1438.38,1028.29Zm0,4.52a1.425,1.425,0,1,1,1.42-1.43A1.428,1.428,0,0,1,1438.38,1032.81Z" transform="translate(-1398.25 -1011.41)"/>
  </symbol>

  <symbol id="arrow" viewBox="0 0 22 9">
   <path class="cls-1" d="M535.3,654.472h16.948l-0.1,2.857a0.292,0.292,0,0,0,0,.41l0.172,0.172a0.28,0.28,0,0,0,.2.086,0.285,0.285,0,0,0,.2-0.084l4.193-4.211A0.292,0.292,0,0,0,557,653.5a0.283,0.283,0,0,0-.084-0.2l-4.193-4.213a0.289,0.289,0,0,0-.407,0l-0.172.173a0.287,0.287,0,0,0-.084.2,0.278,0.278,0,0,0,.084.2l0.113,2.865H535.292a0.3,0.3,0,0,0-.292.295v1.37A0.292,0.292,0,0,0,535.3,654.472Z" transform="translate(-535 -649)"/>
  </symbol>

  <symbol id="play" viewBox="0 0 22 9">
   <path fill-rule="evenodd"  opacity="0.4" fill="rgb(163, 187, 200)"
 d="M63.500,-0.000 C98.570,-0.000 127.000,28.430 127.000,63.500 C127.000,98.570 98.570,127.000 63.500,127.000 C28.430,127.000 -0.000,98.570 -0.000,63.500 C-0.000,28.430 28.430,-0.000 63.500,-0.000 Z"/>
<path fill-rule="evenodd"  fill="rgb(163, 187, 200)"
 d="M63.000,14.000 C90.062,14.000 112.000,35.938 112.000,63.000 C112.000,90.062 90.062,112.000 63.000,112.000 C35.938,112.000 14.000,90.062 14.000,63.000 C14.000,35.938 35.938,14.000 63.000,14.000 Z"/>
<path fill-rule="evenodd"  fill="rgb(255, 255, 255)"
 d="M73.684,64.740 L57.640,74.536 C57.139,74.842 56.559,74.997 55.977,74.997 C55.498,74.997 55.017,74.891 54.578,74.680 C53.606,74.210 52.999,73.293 52.999,72.295 L52.999,52.700 C52.999,51.701 53.606,50.783 54.578,50.314 C55.549,49.845 56.727,49.900 57.640,50.457 L73.684,60.255 C74.506,60.757 74.999,61.598 74.999,62.496 C74.999,63.396 74.506,64.237 73.684,64.740 Z"/>
  </symbol>

  <symbol id="user-icon" viewBox="0 0 512 512">
   <path d="M437.02,330.98c-27.883-27.882-61.071-48.523-97.281-61.018C378.521,243.251,404,198.548,404,148
			C404,66.393,337.607,0,256,0S108,66.393,108,148c0,50.548,25.479,95.251,64.262,121.962
			c-36.21,12.495-69.398,33.136-97.281,61.018C26.629,379.333,0,443.62,0,512h40c0-119.103,96.897-216,216-216s216,96.897,216,216
			h40C512,443.62,485.371,379.333,437.02,330.98z M256,256c-59.551,0-108-48.448-108-108S196.449,40,256,40
			c59.551,0,108,48.448,108,108S315.551,256,256,256z"/>
  </symbol>

  <symbol id="calendar" viewBox="0 0 512 512">
   <path d="M452,40h-24V0h-40v40H124V0H84v40H60C26.916,40,0,66.916,0,100v352c0,33.084,26.916,60,60,60h392    c33.084,0,60-26.916,60-60V100C512,66.916,485.084,40,452,40z M472,452c0,11.028-8.972,20-20,20H60c-11.028,0-20-8.972-20-20V188    h432V452z M472,148H40v-48c0-11.028,8.972-20,20-20h24v40h40V80h264v40h40V80h24c11.028,0,20,8.972,20,20V148z" fill="#000000" data-original="#000000"/>
  </symbol>

<symbol id="play-video" width="127px" height="127px">
<path fill-rule="evenodd"  opacity="0.4" fill="rgb(163, 187, 200)"
 d="M63.500,-0.000 C98.570,-0.000 127.000,28.430 127.000,63.500 C127.000,98.570 98.570,127.000 63.500,127.000 C28.430,127.000 -0.000,98.570 -0.000,63.500 C-0.000,28.430 28.430,-0.000 63.500,-0.000 Z"/>
<path fill-rule="evenodd"  fill="rgb(163, 187, 200)"
 d="M63.000,14.000 C90.062,14.000 112.000,35.938 112.000,63.000 C112.000,90.062 90.062,112.000 63.000,112.000 C35.938,112.000 14.000,90.062 14.000,63.000 C14.000,35.938 35.938,14.000 63.000,14.000 Z"/>
<path fill-rule="evenodd"  fill="rgb(255, 255, 255)"
 d="M73.684,64.740 L57.640,74.536 C57.139,74.842 56.559,74.997 55.977,74.997 C55.498,74.997 55.017,74.891 54.578,74.680 C53.606,74.210 52.999,73.293 52.999,72.295 L52.999,52.700 C52.999,51.701 53.606,50.783 54.578,50.314 C55.549,49.845 56.727,49.900 57.640,50.457 L73.684,60.255 C74.506,60.757 74.999,61.598 74.999,62.496 C74.999,63.396 74.506,64.237 73.684,64.740 Z"/>
</symbol>
  
</svg>